<?xml version="1.0"?>
<svg width="32" height="32" xmlns="http://www.w3.org/2000/svg">
 <g>
  <title>background</title>
  <rect x="-1" y="-1" width="34" height="34" id="canvas_background" fill="none"/>
 </g>

 <g>
  <title>Layer 1</title>
  <path d="m20.377001,16.518999l6.566999,-6.565999c0.962,-0.963 0.962,-2.539 0,-3.502l-0.875999,-0.875c-0.963001,-0.964 -2.539001,-0.964 -3.501001,0l-6.566999,6.566l-6.567,-6.567c-0.962,-0.963 -2.538,-0.963 -3.500999,0l-0.876,0.875c-0.962,0.963 -0.962,2.539001 0,3.502l6.566,6.566l-6.566,6.566999c-0.962,0.963001 -0.962,2.538 0,3.501001l0.876,0.875999c0.963,0.962999 2.539,0.962999 3.500999,0l6.567,-6.566l6.566999,6.566c0.962,0.962999 2.538,0.962999 3.501001,0l0.875999,-0.875999c0.962,-0.963001 0.962,-2.538 0,-3.501001l-6.566999,-6.566z" fill="#ff4949" id="svg_1"/>
 </g>
</svg>